<svg xmlns:xlink="http://www.w3.org/1999/xlink" xmlns="http://www.w3.org/2000/svg" viewBox="0 0 24 24" width="48px"  height="48px" >    <path style= "fill:rgb(60.784316%,34.901962%,71.372551%);fill-opacity:1;" d="M 6 2 C 4.9 2 4 2.9 4 4 L 4 6.8496094 C 4 8.8596094 3.3694531 10.790156 2.1894531 12.410156 C 1.9694531 12.720156 1.939375 13.119219 2.109375 13.449219 C 2.279375 13.789219 2.62 14 3 14 L 17 14 C 17.32 14 17.620547 13.849844 17.810547 13.589844 C 19.240547 11.619844 20 9.2896094 20 6.8496094 L 20 4 C 20 2.9 19.1 2 18 2 L 6 2 z M 20 13.900391 C 19.82 14.200391 19.629922 14.489531 19.419922 14.769531 C 18.859922 15.539531 17.96 16 17 16 L 4 16 L 4 18 C 4 18.55 4.45 19 5 19 L 6.3808594 19 L 5.109375 21.550781 C 4.859375 22.050781 5.0607812 22.650625 5.5507812 22.890625 C 5.7007812 22.970625 5.85 23 6 23 C 6.37 23 6.720625 22.799219 6.890625 22.449219 L 8.6191406 19 L 11 19 L 11 21 C 11 21.55 11.45 22 12 22 C 12.55 22 13 21.55 13 21 L 13 19 L 15.380859 19 L 17.109375 22.449219 C 17.279375 22.799219 17.63 23 18 23 C 18.15 23 18.299219 22.970625 18.449219 22.890625 C 18.939219 22.650625 19.140625 22.050781 18.890625 21.550781 L 17.619141 19 L 19 19 C 19.55 19 20 18.55 20 18 L 20 13.900391 z"></path></svg>
