<svg xmlns:xlink="http://www.w3.org/1999/xlink" xmlns="http://www.w3.org/2000/svg" viewBox="0 0 64 64" width="48"  height="48" ><path style="fill:#ffffff" d="M 31 0 C 30.449219 0 30 0.445313 30 1 L 30 4 L 7 4 C 5.347656 4 4 5.347656 4 7 L 4 55 C 4 56.652344 5.347656 58 7 58 L 30 58 L 30 61 C 30 61.554688 30.449219 62 31 62 C 31.550781 62 32 61.554688 32 61 L 32 58 L 55 58 C 56.652344 58 58 56.652344 58 55 L 58 7 C 58 5.347656 56.652344 4 55 4 L 32 4 L 32 1 C 32 0.445313 31.550781 0 31 0 Z M 7 6 L 30 6 L 30 11 C 30 11.554688 30.449219 12 31 12 C 31.550781 12 32 11.554688 32 11 L 32 6 L 55 6 C 55.550781 6 56 6.449219 56 7 L 56 55 C 56 55.550781 55.550781 56 55 56 L 32 56 L 32 51 C 32 50.445313 31.550781 50 31 50 C 30.449219 50 30 50.445313 30 51 L 30 56 L 7 56 C 6.449219 56 6 55.550781 6 55 L 6 7 C 6 6.449219 6.449219 6 7 6 Z M 36 8 C 35.449219 8 35 8.445313 35 9 L 35 11 C 35 11.554688 35.449219 12 36 12 C 36.550781 12 37 11.554688 37 11 L 37 9 C 37 8.445313 36.550781 8 36 8 Z M 41 8 C 40.449219 8 40 8.445313 40 9 L 40 11 C 40 11.554688 40.449219 12 41 12 C 41.550781 12 42 11.554688 42 11 L 42 9 C 42 8.445313 41.550781 8 41 8 Z M 46 8 C 45.449219 8 45 8.445313 45 9 L 45 11 C 45 11.554688 45.449219 12 46 12 C 46.550781 12 47 11.554688 47 11 L 47 9 C 47 8.445313 46.550781 8 46 8 Z M 51 8 C 50.449219 8 50 8.445313 50 9 L 50 11 C 50 11.554688 50.449219 12 51 12 C 51.550781 12 52 11.554688 52 11 L 52 9 C 52 8.445313 51.550781 8 51 8 Z M 31 14 C 30.449219 14 30 14.445313 30 15 L 30 17 C 30 17.554688 30.449219 18 31 18 C 31.550781 18 32 17.554688 32 17 L 32 15 C 32 14.445313 31.550781 14 31 14 Z M 18.5 20 C 18.058594 20 17.671875 20.285156 17.542969 20.707031 L 12.042969 38.707031 C 11.882813 39.234375 12.179688 39.792969 12.707031 39.953125 C 12.804688 39.984375 12.902344 40 13 40 C 13.429688 40 13.824219 39.722656 13.953125 39.292969 L 15.574219 34 L 20.902344 34 C 21.03125 34 21.148438 33.972656 21.265625 33.925781 L 22.84375 39.28125 C 22.996094 39.8125 23.550781 40.121094 24.082031 39.960938 C 24.613281 39.804688 24.914063 39.246094 24.761719 38.71875 L 19.457031 20.71875 C 19.332031 20.292969 18.945313 20.003906 18.503906 20 Z M 31 20 C 30.449219 20 30 20.445313 30 21 L 30 23 C 30 23.554688 30.449219 24 31 24 C 31.550781 24 32 23.554688 32 23 L 32 21 C 32 20.445313 31.550781 20 31 20 Z M 39.011719 20 C 38.460938 20 38.011719 20.445313 38.011719 21 L 38.011719 28.847656 C 38.003906 28.898438 38 28.949219 38 29 C 38 29.050781 38.003906 29.101563 38.011719 29.152344 L 38.011719 39 C 38.011719 39.554688 38.460938 40 39.011719 40 L 45.011719 40 C 47.769531 40 50.011719 37.757813 50.011719 35 L 50.011719 33 C 50.011719 31.007813 48.839844 29.28125 47.148438 28.480469 C 47.6875 27.796875 48.011719 26.933594 48.011719 26 L 48.011719 24 C 48.011719 21.792969 46.21875 20 44.011719 20 Z M 40 22 L 44.011719 22 C 45.113281 22 46.011719 22.898438 46.011719 24 L 46.011719 26 C 46.011719 27.101563 45.113281 28 44.011719 28 L 40 28 Z M 18.484375 24.480469 L 20.695313 32 L 16.1875 32 Z M 31 26 C 30.449219 26 30 26.445313 30 27 L 30 29 C 30 29.554688 30.449219 30 31 30 C 31.550781 30 32 29.554688 32 29 L 32 27 C 32 26.445313 31.550781 26 31 26 Z M 40 30 L 45.011719 30 C 46.664063 30 48.011719 31.347656 48.011719 33 L 48.011719 35 C 48.011719 36.652344 46.664063 38 45.011719 38 L 40 38 Z M 31 32 C 30.449219 32 30 32.445313 30 33 L 30 35 C 30 35.554688 30.449219 36 31 36 C 31.550781 36 32 35.554688 32 35 L 32 33 C 32 32.445313 31.550781 32 31 32 Z M 31 38 C 30.449219 38 30 38.445313 30 39 L 30 41 C 30 41.554688 30.449219 42 31 42 C 31.550781 42 32 41.554688 32 41 L 32 39 C 32 38.445313 31.550781 38 31 38 Z M 31 44 C 30.449219 44 30 44.445313 30 45 L 30 47 C 30 47.554688 30.449219 48 31 48 C 31.550781 48 32 47.554688 32 47 L 32 45 C 32 44.445313 31.550781 44 31 44 Z M 11 50 C 10.449219 50 10 50.445313 10 51 L 10 53 C 10 53.554688 10.449219 54 11 54 C 11.550781 54 12 53.554688 12 53 L 12 51 C 12 50.445313 11.550781 50 11 50 Z M 16 50 C 15.449219 50 15 50.445313 15 51 L 15 53 C 15 53.554688 15.449219 54 16 54 C 16.550781 54 17 53.554688 17 53 L 17 51 C 17 50.445313 16.550781 50 16 50 Z M 21 50 C 20.449219 50 20 50.445313 20 51 L 20 53 C 20 53.554688 20.449219 54 21 54 C 21.550781 54 22 53.554688 22 53 L 22 51 C 22 50.445313 21.550781 50 21 50 Z M 26 50 C 25.449219 50 25 50.445313 25 51 L 25 53 C 25 53.554688 25.449219 54 26 54 C 26.550781 54 27 53.554688 27 53 L 27 51 C 27 50.445313 26.550781 50 26 50 Z"></path></svg>
