<svg version="1.1" xmlns="http://www.w3.org/2000/svg" xmlns:xlink="http://www.w3.org/1999/xlink" viewBox="0 0 172 172" width="48px"  height="48px" ><g fill="none" fill-rule="nonzero" stroke="none" stroke-width="1" stroke-linecap="butt" stroke-linejoin="miter" stroke-miterlimit="10" stroke-dasharray="" stroke-dashoffset="0" font-family="none" font-weight="none" font-size="none" text-anchor="none" style="mix-blend-mode: normal"><path d="M0,172v-172h172v172z" fill="none"></path><g fill="#9b59b6"><path d="M86,3.44c-0.68026,0 -1.3602,0.20221 -1.94844,0.60469l-79.12,54.35469c-0.93224,0.63984 -1.49156,1.70355 -1.49156,2.83531v12.04c0,1.27968 0.70918,2.44848 1.84094,3.0436c1.1352,0.59168 2.50846,0.51428 3.55422,-0.215l77.16484,-53.34688l77.16485,53.34016c0.5848,0.40592 1.27059,0.61812 1.95515,0.61812c0.54696,0 1.09338,-0.13496 1.59906,-0.3964c1.13176,-0.59512 1.84094,-1.76392 1.84094,-3.0436v-12.04c0,-1.13176 -0.55588,-2.19547 -1.49156,-2.83531l-79.12,-54.35469c-0.58824,-0.40248 -1.26818,-0.60469 -1.94844,-0.60469zM86,31.13469l-61.92,42.79172l-6.88,4.74344v79.57015c0,1.892 1.548,3.44 3.44,3.44h37.84c1.892,0 3.44,-1.548 3.44,-3.44v-44.72c0,-13.2784 10.8016,-24.08 24.08,-24.08c13.2784,0 24.08,10.8016 24.08,24.08v44.72c0,1.892 1.548,3.44 3.44,3.44h37.84c1.892,0 3.44,-1.548 3.44,-3.44v-79.52985l-6.88,-4.75015z"></path></g></g></svg>
