<?xml version="1.0" standalone="no"?>
<!DOCTYPE svg PUBLIC "-//W3C//DTD SVG 20010904//EN"
 "http://www.w3.org/TR/2001/REC-SVG-20010904/DTD/svg10.dtd">
<svg version="1.0" xmlns="http://www.w3.org/2000/svg"
 width="50px" height="50px" viewBox="0 0 753.000000 399.000000"
 preserveAspectRatio="xMidYMid meet">

<g transform="translate(0.000000,399.000000) scale(0.100000,-0.100000)"
fill="#9B59B6" stroke="none">
<path d="M3595 3671 c-111 -32 -182 -86 -230 -172 -28 -50 -30 -61 -30 -159 0
-99 2 -109 33 -170 44 -89 112 -163 250 -273 129 -104 181 -157 210 -214 59
-118 20 -249 -91 -302 -66 -32 -186 -30 -256 5 -82 41 -123 108 -138 227 -4
37 -10 47 -22 45 -21 -4 -29 -62 -30 -210 l-1 -117 28 -15 c101 -52 316 -68
440 -31 169 49 276 175 289 340 15 191 -68 323 -327 521 -161 124 -210 187
-210 271 0 44 28 110 56 135 56 50 192 64 270 29 53 -24 109 -91 124 -149 18
-71 19 -72 29 -72 5 0 12 8 15 18 7 23 12 269 6 275 -3 3 -40 12 -82 21 -102
21 -256 20 -333 -3z"/>
<path d="M4730 3676 c-264 -56 -449 -219 -537 -471 -24 -72 -27 -94 -28 -220
0 -120 3 -151 23 -215 80 -256 244 -414 497 -481 110 -29 306 -30 420 -1 l80
21 185 -108 c215 -126 356 -198 458 -235 243 -87 535 -89 796 -6 144 46 208
77 204 98 -2 9 -11 15 -19 13 -8 -2 -48 -14 -90 -27 -232 -69 -487 -49 -779
63 -52 20 -210 94 -351 164 l-257 128 92 93 c137 140 202 280 213 465 22 345
-162 610 -489 704 -95 27 -322 35 -418 15z m243 -91 c176 -46 307 -179 374
-380 26 -75 27 -92 28 -260 0 -200 -11 -259 -67 -374 -63 -131 -166 -199 -311
-208 -159 -10 -277 35 -393 151 -128 128 -186 288 -186 516 0 209 46 355 142
451 103 103 262 143 413 104z"/>
<path d="M321 3662 c-6 -2 -11 -10 -11 -18 0 -10 13 -14 44 -14 57 0 104 -17
119 -44 9 -15 14 -140 18 -456 5 -369 8 -444 23 -495 28 -99 62 -163 121 -224
97 -102 217 -145 410 -145 134 0 200 15 297 66 102 54 174 138 216 249 40 108
45 162 51 586 6 406 6 413 28 434 14 15 38 23 72 27 34 3 51 9 51 18 0 8 -3
15 -7 15 -24 4 -460 5 -470 1 -7 -2 -13 -10 -13 -18 0 -10 13 -14 40 -14 53 0
105 -22 121 -52 10 -18 13 -120 13 -448 0 -453 -4 -503 -53 -598 -75 -144
-286 -209 -454 -138 -96 40 -175 155 -196 286 -15 92 -15 871 0 904 13 27 54
46 100 46 27 0 47 15 35 27 -6 7 -537 11 -555 5z"/>
<path d="M1808 3659 c-20 -13 1 -26 53 -32 58 -7 103 -30 131 -68 10 -14 134
-304 274 -645 140 -340 264 -628 274 -639 20 -19 20 -19 39 0 11 11 83 165
160 342 77 177 186 425 242 550 198 448 200 451 283 460 45 5 65 17 52 31 -7
7 -414 11 -433 4 -7 -2 -13 -10 -13 -18 0 -10 13 -14 41 -14 57 0 79 -14 79
-51 0 -27 -351 -933 -368 -951 -7 -7 -346 884 -357 939 -5 25 -2 34 17 47 12
9 37 16 55 16 31 0 52 15 39 28 -9 8 -554 9 -568 1z"/>
<path d="M6055 3656 c-40 -17 -55 -53 -55 -129 l0 -62 226 -290 c124 -160 232
-297 241 -305 19 -19 32 -44 -189 369 -98 183 -177 335 -174 338 4 4 76 -121
311 -539 49 -87 90 -156 92 -155 1 2 -56 167 -128 368 -140 387 -147 410 -132
394 5 -5 74 -177 154 -382 79 -204 145 -370 146 -369 3 3 -137 688 -153 753
-6 23 -8 23 -158 23 -102 -1 -161 -5 -181 -14z"/>
<path d="M6410 3656 c0 -21 171 -760 177 -766 3 -3 3 22 -1 55 -3 33 -13 191
-21 350 -9 160 -18 309 -21 333 l-5 42 -65 0 c-48 0 -64 -4 -64 -14z"/>
<path d="M6560 3648 c-1 -55 52 -705 59 -721 6 -16 62 640 61 716 0 26 -1 27
-60 27 -55 0 -60 -2 -60 -22z"/>
<path d="M6696 3598 c-10 -124 -38 -689 -34 -693 2 -2 42 161 88 363 46 202
86 375 88 385 4 15 -4 17 -66 17 l-70 0 -6 -72z"/>
<path d="M6850 3663 c-1 -5 -36 -181 -79 -393 -43 -212 -77 -386 -76 -388 1
-1 66 165 144 370 141 367 160 414 161 392 0 -9 -167 -490 -254 -731 -8 -24
-13 -43 -11 -43 2 0 92 160 201 356 108 195 198 353 201 350 4 -4 -211 -426
-340 -666 -22 -41 -35 -70 -29 -65 6 6 114 147 241 314 l231 304 0 63 c0 132
-19 144 -235 144 -85 0 -155 -3 -155 -7z"/>
<path d="M6000 3344 l0 -91 173 -164 c319 -305 314 -306 72 21 -119 162 -223
302 -231 310 -12 12 -14 1 -14 -76z"/>
<path d="M7083 3224 c-83 -115 -184 -254 -224 -309 l-72 -100 139 132 c76 72
179 172 227 220 l88 89 -3 88 -3 88 -152 -208z"/>
<path d="M6000 3155 l0 -64 98 -69 c53 -38 149 -104 212 -147 l115 -78 -210
212 c-115 116 -211 211 -212 211 -2 0 -3 -29 -3 -65z"/>
<path d="M7030 3016 c-112 -113 -202 -207 -200 -209 5 -5 373 252 398 277 9 8
12 34 10 75 l-3 61 -205 -204z"/>
<path d="M6000 3010 l0 -51 196 -95 c108 -52 198 -93 200 -91 3 2 -372 278
-388 285 -4 2 -8 -19 -8 -48z"/>
<path d="M7049 2924 c-101 -75 -191 -143 -199 -151 -8 -8 76 31 188 86 l202
101 0 50 c0 28 -2 50 -4 50 -1 0 -86 -61 -187 -136z"/>
<path d="M6002 2888 l3 -43 166 -51 c92 -28 179 -54 195 -58 16 -4 -58 39
-163 94 -106 55 -195 100 -198 100 -4 0 -5 -19 -3 -42z"/>
<path d="M7043 2832 c-100 -53 -181 -97 -180 -99 1 -1 87 24 190 55 l187 57 0
42 c0 24 -3 43 -7 42 -5 0 -90 -44 -190 -97z"/>
<path d="M6000 2781 c0 -26 5 -41 13 -41 6 -1 89 -11 182 -24 94 -13 171 -22
173 -21 2 2 -75 29 -170 60 -95 32 -179 60 -185 63 -9 3 -13 -8 -13 -37z"/>
<path d="M7047 2758 c-98 -33 -177 -61 -175 -63 2 -1 80 8 173 21 94 13 176
23 183 24 7 0 12 15 12 40 0 22 -3 40 -7 39 -5 0 -88 -28 -186 -61z"/>
<path d="M6002 2694 l3 -29 180 -2 c99 -1 171 2 160 6 -11 5 -83 16 -160 25
-77 10 -150 20 -163 23 -21 5 -23 2 -20 -23z"/>
<path d="M7060 2694 c-90 -13 -169 -26 -175 -28 -5 -2 72 -5 173 -5 l182 -1 0
30 c0 17 -3 30 -7 29 -5 0 -82 -12 -173 -25z"/>
<path d="M6000 2596 c0 -63 17 -103 54 -125 34 -21 189 -61 429 -111 137 -29
140 -29 220 -14 163 30 450 104 482 124 40 25 55 58 55 120 l0 50 -620 0 -620
0 0 -44z"/>
<path d="M310 1010 l0 -680 3465 0 3465 0 0 680 0 680 -3465 0 -3465 0 0 -680z
m3306 397 c32 -28 36 -72 11 -111 -46 -70 -150 -30 -150 56 0 39 42 78 83 78
16 0 41 -11 56 -23z m-208 -189 c31 -31 4 -88 -42 -88 -37 0 -61 61 -34 88 15
15 61 15 76 0z m-298 -188 c47 0 50 -2 50 -25 0 -23 -3 -25 -50 -25 l-50 0 0
-99 c0 -117 11 -137 67 -126 30 5 33 4 33 -19 0 -21 -6 -26 -35 -32 -41 -7
-91 10 -105 37 -6 10 -10 67 -10 128 l0 111 -30 0 c-25 0 -30 4 -30 24 0 19 6
25 28 28 23 3 27 8 30 40 2 25 11 43 25 53 22 15 22 15 25 -40 l3 -55 49 0z
m-1950 -5 c50 -26 60 -60 60 -195 l0 -120 -25 0 c-25 0 -25 0 -25 99 0 54 -5
112 -10 128 -19 55 -90 69 -137 29 -27 -24 -28 -27 -31 -140 -4 -115 -4 -116
-28 -116 l-24 0 0 160 0 160 25 0 c18 0 25 -5 25 -20 0 -18 2 -18 36 5 42 29
91 32 134 10z m900 -3 c48 -24 80 -75 80 -128 l0 -44 -124 0 -125 0 10 -29
c23 -66 100 -90 165 -52 34 20 38 21 53 6 15 -15 14 -18 -9 -35 -83 -65 -188
-48 -247 40 -32 46 -32 134 0 181 50 74 125 97 197 61z m360 -12 c0 -24 -4
-30 -20 -30 -36 0 -77 -28 -94 -64 -11 -23 -16 -61 -16 -120 l0 -86 -30 0 -30
0 0 160 0 160 30 0 c27 0 30 -3 30 -32 l0 -32 16 23 c17 24 66 50 97 51 12 0
17 -8 17 -30z m230 20 c55 -16 64 -24 51 -48 -11 -20 -13 -20 -47 -6 -44 19
-93 15 -108 -8 -17 -28 3 -48 74 -74 72 -26 100 -52 100 -94 0 -85 -115 -124
-215 -73 -40 20 -38 18 -25 42 l11 21 39 -20 c48 -24 97 -26 122 -3 37 33 12
61 -80 88 -63 19 -96 56 -88 99 14 71 80 101 166 76z m809 -17 c34 -26 57 -68
65 -120 l6 -43 -129 0 -130 0 10 -29 c23 -66 100 -90 165 -52 33 20 39 21 52
7 21 -20 4 -40 -54 -62 -131 -50 -247 55 -220 200 8 43 49 94 91 112 39 18
110 12 144 -13z m-2859 -98 c0 -110 1 -117 25 -140 34 -35 78 -33 116 4 29 29
29 31 29 140 l0 111 30 0 30 0 0 -160 0 -160 -30 0 c-24 0 -30 4 -30 22 l0 21
-24 -22 c-35 -33 -101 -38 -144 -11 -49 31 -62 72 -62 200 l0 110 30 0 30 0 0
-115z m790 -45 l0 -160 -30 0 -30 0 0 160 0 160 30 0 30 0 0 -160z m193 31
c28 -68 53 -120 54 -115 2 5 25 61 51 124 43 104 50 115 75 118 15 2 27 0 27
-5 0 -4 -30 -77 -67 -161 -62 -143 -68 -153 -92 -150 -26 3 -26 3 -132 251
l-29 68 31 -3 c29 -3 33 -9 82 -127z m1287 -31 l0 -160 -25 0 -25 0 0 160 0
160 25 0 25 0 0 -160z m1015 110 c74 -17 99 -90 51 -147 -19 -21 -35 -28 -77
-33 l-54 -5 -3 -37 c-3 -33 -7 -38 -28 -38 l-24 0 0 135 0 135 48 0 c26 0 65
-5 87 -10z m314 -92 c24 -57 50 -118 57 -135 14 -33 14 -33 -15 -33 -22 0 -31
6 -41 30 -12 28 -15 30 -70 30 -55 0 -58 -2 -70 -30 -10 -24 -19 -30 -41 -30
-29 0 -29 0 -15 33 7 17 33 78 57 135 39 92 46 102 69 102 23 0 30 -10 69
-102z m347 71 c34 -32 33 -91 -2 -126 l-25 -25 25 -39 c14 -21 26 -41 26 -44
0 -3 -13 -5 -30 -5 -24 0 -35 8 -56 40 -21 31 -33 40 -55 40 -27 0 -29 -3 -29
-40 0 -36 -2 -40 -25 -40 l-25 0 0 136 0 137 86 -6 c71 -5 91 -10 110 -28z
m174 -104 l0 -135 -30 0 -30 0 0 135 0 135 30 0 30 0 0 -135z m268 111 c15
-15 15 -17 0 -32 -13 -13 -20 -14 -37 -4 -33 17 -76 9 -76 -14 0 -15 15 -26
59 -43 69 -26 76 -34 76 -86 0 -31 -5 -40 -32 -57 -40 -24 -75 -25 -128 -4
-41 17 -50 33 -26 53 10 8 20 8 42 -4 37 -19 68 -19 84 0 18 21 -1 40 -53 54
-51 13 -60 19 -76 48 -16 30 -4 69 28 94 21 17 36 20 74 16 27 -2 56 -12 65
-21z m452 9 c33 -17 37 -27 17 -43 -8 -7 -25 -7 -55 1 -31 8 -45 8 -53 0 -20
-20 -3 -40 47 -57 60 -20 84 -42 84 -77 0 -41 -9 -58 -41 -74 -38 -20 -75 -18
-128 6 l-45 20 20 20 c19 18 22 19 50 4 37 -19 68 -19 84 0 18 22 -1 40 -55
54 -86 22 -110 78 -56 132 34 33 83 39 131 14z m319 -104 c28 -66 54 -127 57
-135 5 -12 -1 -16 -24 -16 -24 0 -32 6 -41 30 -10 29 -12 30 -70 30 -57 0 -59
-1 -70 -30 -8 -24 -16 -30 -40 -30 l-29 0 54 127 c67 154 60 143 88 143 21 0
30 -16 75 -119z m321 104 c33 -17 38 -36 15 -55 -11 -9 -19 -8 -37 4 -34 24
-66 19 -99 -13 -20 -20 -29 -39 -29 -61 0 -22 9 -41 29 -61 33 -33 53 -36 95
-14 27 15 31 14 49 -3 18 -18 18 -19 -9 -37 -88 -57 -208 -3 -220 101 -13 107
109 189 206 139z m180 -95 l0 -110 65 0 c63 0 65 -1 65 -25 0 -25 0 -25 -95
-25 l-95 0 0 135 0 135 30 0 30 0 0 -110z m409 -9 c28 -66 54 -127 57 -135 5
-12 -1 -16 -24 -16 -24 0 -32 6 -41 30 -10 29 -12 30 -70 30 -57 0 -59 -1 -70
-30 -8 -24 -16 -30 -40 -30 l-29 0 54 127 c67 154 60 143 88 143 21 0 30 -16
75 -119z m169 64 c18 -30 35 -55 37 -55 2 0 19 25 37 55 27 45 37 55 60 55 16
0 28 -3 28 -7 0 -3 -22 -41 -50 -84 -43 -67 -50 -85 -50 -128 0 -48 -2 -51
-25 -51 -23 0 -25 4 -25 47 0 39 -9 60 -55 135 l-55 88 33 0 c29 0 36 -6 65
-55z m-1638 -100 c0 -24 -3 -25 -55 -25 -52 0 -55 1 -55 25 0 24 3 25 55 25
52 0 55 -1 55 -25z"/>
<path d="M1931 963 c-16 -16 -32 -38 -36 -50 -6 -23 -5 -23 94 -23 56 0 101 2
101 5 0 20 -32 75 -48 84 -36 19 -80 13 -111 -16z"/>
<path d="M3309 961 c-16 -16 -29 -39 -29 -50 0 -20 5 -21 95 -21 60 0 95 4 95
10 0 21 -30 70 -49 80 -37 19 -81 12 -112 -19z"/>
<path d="M3807 933 c-4 -3 -7 -24 -7 -45 0 -37 1 -38 38 -38 44 0 62 14 62 47
0 16 -8 27 -26 33 -29 12 -58 13 -67 3z"/>
<path d="M4107 870 l-15 -40 34 0 c19 0 34 3 34 7 0 14 -24 73 -30 73 -4 0
-14 -18 -23 -40z"/>
<path d="M4404 926 c-3 -8 -4 -27 -2 -43 2 -21 9 -29 27 -31 64 -9 107 32 71
68 -24 24 -88 28 -96 6z"/>
<path d="M5665 878 c-22 -44 -18 -51 24 -46 l30 3 -18 40 -18 40 -18 -37z"/>
<path d="M6575 878 c-22 -44 -18 -51 24 -46 l30 3 -18 40 -18 40 -18 -37z"/>
</g>
</svg>
